<svg width="561" height="291" viewBox="0 0 561 291" fill="none" xmlns="http://www.w3.org/2000/svg">
<path d="M253.642 218.366L254 72.8632L127.977 -5.50862e-06L4.26218e-05 72.1689L1.95479 218.845L127.358 290.298L253.642 218.366Z" fill="white"/>
<path d="M138.366 198.898L138.482 151.649L97.5589 127.988L56.0011 151.424L56.6359 199.053L97.3577 222.256L138.366 198.898Z" fill="#E7BBB1"/>
<path d="M560.643 218.366L561.001 72.8632L434.978 -5.50862e-06L307.001 72.1689L308.956 218.845L434.359 290.298L560.643 218.366Z" fill="white"/>
<path d="M445.366 198.905L445.482 151.657L404.559 127.996L363.002 151.431L363.636 199.061L404.358 222.264L445.366 198.905Z" fill="#E7BBB1"/>
</svg>
