<svg width="681" height="322" viewBox="0 0 681 322" fill="none" xmlns="http://www.w3.org/2000/svg">
<path d="M313.645 172.263L260.023 50.002L288.117 0L343.018 119.152L313.645 172.263Z" fill="url(#paint0_linear_208_10098)"/>
<path d="M392.057 321.205L342.084 223.307L369.949 173.117L420.268 271.209L392.057 321.205Z" fill="url(#paint1_linear_208_10098)"/>
<path d="M626.657 147.842L574.811 49.7809L602.795 0L681.001 147.842H626.657Z" fill="url(#paint2_linear_208_10098)"/>
<path d="M123.094 49.999H260.016L288.115 0.015625H94.8877L123.094 49.999Z" fill="url(#paint3_linear_208_10098)"/>
<path d="M437.931 49.7765H574.815L602.811 0H409.584L437.931 49.7765Z" fill="url(#paint4_linear_208_10098)"/>
<path d="M55.3946 160.5L123.094 49.9922L94.8906 0.0234375L0.00634766 160.5H55.3946Z" fill="url(#paint5_linear_208_10098)"/>
<path d="M55.3984 160.496H0L94.8867 321L123.102 271.004L55.3984 160.496Z" fill="url(#paint6_linear_208_10098)"/>
<path d="M94.8882 320.996L123.099 271.004L259.947 271L288.115 320.996H94.8882Z" fill="url(#paint7_linear_208_10098)"/>
<path d="M392.062 321.199L420.272 271.207H556.896L585.288 321.199H392.062Z" fill="url(#paint8_linear_208_10098)"/>
<path d="M327.119 147.621L259.949 271.004L288.121 320.992L383.955 147.535L327.119 147.621Z" fill="url(#paint9_linear_208_10098)"/>
<path d="M626.647 147.84L556.9 271.21L585.285 321.196L681.001 147.84H626.647Z" fill="url(#paint10_linear_208_10098)"/>
<path d="M383.953 147.536L437.932 49.7832L409.589 0L327.115 147.621L383.953 147.536Z" fill="url(#paint11_linear_208_10098)"/>
<defs>
<linearGradient id="paint0_linear_208_10098" x1="296.935" y1="48.6516" x2="374.642" y2="202.356" gradientUnits="userSpaceOnUse">
<stop stop-color="#C2E787"/>
<stop offset="1" stop-color="#A1BF70"/>
</linearGradient>
<linearGradient id="paint1_linear_208_10098" x1="346.919" y1="180.888" x2="397.16" y2="273.796" gradientUnits="userSpaceOnUse">
<stop stop-color="#B5D77F"/>
<stop offset="1" stop-color="#C2E787"/>
</linearGradient>
<linearGradient id="paint2_linear_208_10098" x1="591.85" y1="36.8607" x2="638.969" y2="117.874" gradientUnits="userSpaceOnUse">
<stop stop-color="#C2E787"/>
<stop offset="1" stop-color="#C2E787"/>
</linearGradient>
<linearGradient id="paint3_linear_208_10098" x1="245.644" y1="29.6952" x2="65.7271" y2="13.4518" gradientUnits="userSpaceOnUse">
<stop stop-color="#C2E787"/>
<stop offset="1" stop-color="#C2E787"/>
</linearGradient>
<linearGradient id="paint4_linear_208_10098" x1="574.064" y1="24.9916" x2="444.15" y2="33.2989" gradientUnits="userSpaceOnUse">
<stop stop-color="#C2E787"/>
<stop offset="1" stop-color="#C2E787"/>
</linearGradient>
<linearGradient id="paint5_linear_208_10098" x1="112.66" y1="53.7779" x2="28.483" y2="160.5" gradientUnits="userSpaceOnUse">
<stop stop-color="#C2E787"/>
<stop offset="1" stop-color="#C2E787"/>
</linearGradient>
<linearGradient id="paint6_linear_208_10098" x1="46.4933" y1="181.085" x2="109.945" y2="295.608" gradientUnits="userSpaceOnUse">
<stop stop-color="#C2E787"/>
<stop offset="1" stop-color="#C2E787"/>
</linearGradient>
<linearGradient id="paint7_linear_208_10098" x1="126.772" y1="295.998" x2="276.94" y2="293.018" gradientUnits="userSpaceOnUse">
<stop stop-color="#C2E787"/>
<stop offset="1" stop-color="#C2E787"/>
</linearGradient>
<linearGradient id="paint8_linear_208_10098" x1="423.946" y1="296.201" x2="558.67" y2="293.204" gradientUnits="userSpaceOnUse">
<stop stop-color="#C2E787"/>
<stop offset="1" stop-color="#C2E787"/>
</linearGradient>
<linearGradient id="paint9_linear_208_10098" x1="307.862" y1="282.437" x2="346.448" y2="160.009" gradientUnits="userSpaceOnUse">
<stop stop-color="#C2E787"/>
<stop offset="1" stop-color="#C2E787"/>
</linearGradient>
<linearGradient id="paint10_linear_208_10098" x1="604.813" y1="282.644" x2="643.592" y2="156.291" gradientUnits="userSpaceOnUse">
<stop stop-color="#C2E787"/>
<stop offset="1" stop-color="#C2E787"/>
</linearGradient>
<linearGradient id="paint11_linear_208_10098" x1="406.846" y1="45.9884" x2="343.181" y2="159.492" gradientUnits="userSpaceOnUse">
<stop stop-color="#C2E787"/>
<stop offset="0.914192" stop-color="#C2E787"/>
</linearGradient>
</defs>
</svg>
