<svg width="1406" height="119" viewBox="0 0 1406 119" fill="none" xmlns="http://www.w3.org/2000/svg">
<path d="M203 0L203 89L352 1.3026e-05L203 0Z" fill="#E7BBB1"/>
<path d="M449 0L449 89L594 1.26763e-05L449 0Z" fill="#E7BBB1"/>
<path d="M678 0L678 89L824 1.27637e-05L678 0Z" fill="#E7BBB1"/>
<path d="M913 0L913 89L1056 1.25015e-05L913 0Z" fill="#E7BBB1"/>
<path d="M1157 0L1157 89L1295 1.20643e-05L1157 0Z" fill="#E7BBB1"/>
<path d="M231 0L231 89L110 -1.05782e-05L231 0Z" fill="#E7BBB1"/>
<path d="M473 0L473 89L352 -1.05782e-05L473 0Z" fill="#E7BBB1"/>
<path d="M703 0L703 89L582 -1.05782e-05L703 0Z" fill="#E7BBB1"/>
<path d="M935 0L935 89L814 -1.05782e-05L935 0Z" fill="#E7BBB1"/>
<path d="M1171 0L1171 89L1050 -1.05782e-05L1171 0Z" fill="#E7BBB1"/>
<path d="M1406 -7.62939e-06L1406 80L1290 -1.77704e-05L1406 -7.62939e-06Z" fill="#E7BBB1"/>
<path d="M7.78063e-06 0L0 89L118 1.03159e-05L7.78063e-06 0Z" fill="#E7BBB1"/>
<path d="M1406 70L1406 119L1290.5 49.5L1172 118L1055.5 49.5L936 119L821 49.4999L702 119L586 49.4999L467.5 119L352 49.4999L231.5 119L117 49.4999L0.5 119L0.500004 69.9999L117 0.499887L231.5 69.9999L352 0.499908L467.5 69.9999L586 0.499928L702 69.9999L821 0.499949L936 70L1055.5 0.499969L1172 69L1290.5 0.49999L1406 70Z" fill="#C2E787"/>
</svg>
