<svg width="1406" height="119" viewBox="0 0 1406 119" fill="none" xmlns="http://www.w3.org/2000/svg">
<path d="M1203 119V30L1054 119H1203Z" fill="#9AB1E7"/>
<path d="M957 119V30L812 119H957Z" fill="#9AB1E7"/>
<path d="M728 119V30L582 119H728Z" fill="#9AB1E7"/>
<path d="M493 119V30L350 119H493Z" fill="#9AB1E7"/>
<path d="M249 119V30L111 119H249Z" fill="#9AB1E7"/>
<path d="M1175 119V30L1296 119H1175Z" fill="#9AB1E7"/>
<path d="M933 119V30L1054 119H933Z" fill="#9AB1E7"/>
<path d="M703 119V30L824 119H703Z" fill="#9AB1E7"/>
<path d="M471 119V30L592 119H471Z" fill="#9AB1E7"/>
<path d="M235 119V30L356 119H235Z" fill="#9AB1E7"/>
<path d="M0 119V39L116 119H0Z" fill="#9AB1E7"/>
<path d="M1406 119V30L1288 119H1406Z" fill="#9AB1E7"/>
<path d="M0 49V0L115.5 69.5L234 1L350.5 69.5L470 0L585 69.5L704 0L820 69.5L938.5 0L1054 69.5L1174.5 0L1289 69.5L1405.5 0V49L1289 118.5L1174.5 49L1054 118.5L938.5 49L820 118.5L704 49L585 118.5L470 49L350.5 118.5L234 50L115.5 118.5L0 49Z" fill="#C2E787"/>
</svg>
