<svg width="12" height="11" viewBox="0 0 12 11" fill="none" xmlns="http://www.w3.org/2000/svg">
<path d="M11.1595 4.71456H11.3793C11.7233 4.71456 12 4.45188 12 4.12536V0.982947C12 0.744811 11.85 0.52877 11.6173 0.437935C11.3845 0.347099 11.1182 0.3962 10.9397 0.565595L9.86391 1.58688C7.59851 -0.536704 3.94957 -0.529339 1.69711 1.61143C-0.565702 3.75956 -0.565702 7.24077 1.69711 9.3889C3.95992 11.537 7.62696 11.537 9.88977 9.3889C10.213 9.08202 10.213 8.58366 9.88977 8.27678C9.56651 7.9699 9.04154 7.9699 8.71828 8.27678C7.10199 9.81116 4.4823 9.81116 2.86601 8.27678C1.24972 6.7424 1.24972 4.25548 2.86601 2.72109C4.47454 1.19408 7.07354 1.18671 8.69242 2.69654L7.62955 3.70801C7.45111 3.8774 7.39939 4.13027 7.49507 4.35122C7.59075 4.57217 7.81833 4.71456 8.06918 4.71456H11.1595Z" fill="white"/>
</svg>
