<svg width="10" height="9" viewBox="0 0 10 9" fill="none" xmlns="http://www.w3.org/2000/svg">
<path d="M2.64062 1.71563L2.13086 3.21429H7.86914L7.35938 1.71563C7.27148 1.45848 7.03516 1.28571 6.76953 1.28571H3.23047C2.96484 1.28571 2.72852 1.45848 2.64062 1.71563ZM0.773438 3.31071L1.46094 1.29174C1.72461 0.518304 2.43359 0 3.23047 0H6.76953C7.56641 0 8.27539 0.518304 8.53906 1.29174L9.22656 3.31071C9.67969 3.50357 10 3.96362 10 4.5V7.39286V8.35714C10 8.71272 9.7207 9 9.375 9H8.75C8.4043 9 8.125 8.71272 8.125 8.35714V7.39286H1.875V8.35714C1.875 8.71272 1.5957 9 1.25 9H0.625C0.279297 9 0 8.71272 0 8.35714V7.39286V4.5C0 3.96362 0.320312 3.50357 0.773438 3.31071ZM2.5 5.14286C2.5 4.97236 2.43415 4.80885 2.31694 4.68829C2.19973 4.56773 2.04076 4.5 1.875 4.5C1.70924 4.5 1.55027 4.56773 1.43306 4.68829C1.31585 4.80885 1.25 4.97236 1.25 5.14286C1.25 5.31335 1.31585 5.47687 1.43306 5.59743C1.55027 5.71798 1.70924 5.78571 1.875 5.78571C2.04076 5.78571 2.19973 5.71798 2.31694 5.59743C2.43415 5.47687 2.5 5.31335 2.5 5.14286ZM8.125 5.78571C8.29076 5.78571 8.44973 5.71798 8.56694 5.59743C8.68415 5.47687 8.75 5.31335 8.75 5.14286C8.75 4.97236 8.68415 4.80885 8.56694 4.68829C8.44973 4.56773 8.29076 4.5 8.125 4.5C7.95924 4.5 7.80027 4.56773 7.68306 4.68829C7.56585 4.80885 7.5 4.97236 7.5 5.14286C7.5 5.31335 7.56585 5.47687 7.68306 5.59743C7.80027 5.71798 7.95924 5.78571 8.125 5.78571Z" fill="white"/>
</svg>
