<svg width="10" height="10" viewBox="0 0 10 10" fill="none" xmlns="http://www.w3.org/2000/svg">
<path d="M2.64062 2.64019L2.13086 4.13885H7.86914L7.35937 2.64019C7.27148 2.38304 7.03516 2.21027 6.76953 2.21027H3.23047C2.96484 2.21027 2.72852 2.38304 2.64062 2.64019ZM0.773437 4.23527L1.46094 2.2163C1.72461 1.44286 2.43359 0.924561 3.23047 0.924561H6.76953C7.56641 0.924561 8.27539 1.44286 8.53906 2.2163L9.22656 4.23527C9.67969 4.42813 10 4.88818 10 5.42456V8.31742V9.2817C10 9.63728 9.7207 9.92456 9.375 9.92456H8.75C8.4043 9.92456 8.125 9.63728 8.125 9.2817V8.31742H1.875V9.2817C1.875 9.63728 1.5957 9.92456 1.25 9.92456H0.625C0.279297 9.92456 0 9.63728 0 9.2817V8.31742V5.42456C0 4.88818 0.320312 4.42813 0.773437 4.23527ZM2.5 6.06742C2.5 5.89692 2.43415 5.73341 2.31694 5.61285C2.19973 5.49229 2.04076 5.42456 1.875 5.42456C1.70924 5.42456 1.55027 5.49229 1.43306 5.61285C1.31585 5.73341 1.25 5.89692 1.25 6.06742C1.25 6.23791 1.31585 6.40143 1.43306 6.52199C1.55027 6.64255 1.70924 6.71027 1.875 6.71027C2.04076 6.71027 2.19973 6.64255 2.31694 6.52199C2.43415 6.40143 2.5 6.23791 2.5 6.06742ZM8.125 6.71027C8.29076 6.71027 8.44973 6.64255 8.56694 6.52199C8.68415 6.40143 8.75 6.23791 8.75 6.06742C8.75 5.89692 8.68415 5.73341 8.56694 5.61285C8.44973 5.49229 8.29076 5.42456 8.125 5.42456C7.95924 5.42456 7.80027 5.49229 7.68306 5.61285C7.56585 5.73341 7.5 5.89692 7.5 6.06742C7.5 6.23791 7.56585 6.40143 7.68306 6.52199C7.80027 6.64255 7.95924 6.71027 8.125 6.71027Z" fill="#202125"/>
<circle cx="2" cy="5.92456" r="1" fill="#202125"/>
<circle cx="8" cy="5.92456" r="1" fill="#202125"/>
</svg>
