<svg width="989" height="989" viewBox="0 0 989 989" fill="none" xmlns="http://www.w3.org/2000/svg">
<rect x="692.646" y="437.555" width="117.753" height="42.5816" rx="5" transform="rotate(-22.325 692.646 437.555)" fill="#9AB1E7"/>
<rect x="638.481" y="684.171" width="117.753" height="42.5816" rx="5" transform="rotate(41.9223 638.481 684.171)" fill="#9AB1E7"/>
<rect x="705.451" y="557.68" width="117.753" height="42.5816" rx="5" transform="rotate(17.5005 705.451 557.68)" fill="#9AB1E7"/>
<rect width="117.753" height="42.5816" rx="5" transform="matrix(-0.925044 -0.379861 -0.379861 0.925044 296.108 437.555)" fill="#9AB1E7"/>
<rect width="117.753" height="42.5816" rx="5" transform="matrix(-0.744052 0.668122 0.668122 0.744052 350.274 684.171)" fill="#9AB1E7"/>
<rect width="117.753" height="42.5816" rx="5" transform="matrix(-0.953714 0.300714 0.300714 0.953714 283.303 557.68)" fill="#9AB1E7"/>
<mask id="path-7-outside-1_336_4459" maskUnits="userSpaceOnUse" x="264.463" y="166" width="458" height="361" fill="black">
<rect fill="white" x="264.463" y="166" width="458" height="361"/>
<path fill-rule="evenodd" clip-rule="evenodd" d="M647.055 250.05C638.701 269.608 619.29 283.315 596.678 283.315C566.437 283.315 541.922 258.8 541.922 228.56C541.922 218.549 544.609 209.166 549.3 201.091C531.461 197.127 512.586 195 493.055 195C473.524 195 454.649 197.127 436.809 201.091C441.501 209.166 444.187 218.549 444.187 228.56C444.187 258.8 419.673 283.315 389.432 283.315C366.82 283.315 347.409 269.608 339.055 250.05C310.573 276.208 293.463 309.746 293.463 346.313C293.463 429.881 382.823 497.626 493.055 497.626C603.286 497.626 692.646 429.881 692.646 346.313C692.646 309.746 675.536 276.208 647.055 250.05Z"/>
</mask>
<path fill-rule="evenodd" clip-rule="evenodd" d="M647.055 250.05C638.701 269.608 619.29 283.315 596.678 283.315C566.437 283.315 541.922 258.8 541.922 228.56C541.922 218.549 544.609 209.166 549.3 201.091C531.461 197.127 512.586 195 493.055 195C473.524 195 454.649 197.127 436.809 201.091C441.501 209.166 444.187 218.549 444.187 228.56C444.187 258.8 419.673 283.315 389.432 283.315C366.82 283.315 347.409 269.608 339.055 250.05C310.573 276.208 293.463 309.746 293.463 346.313C293.463 429.881 382.823 497.626 493.055 497.626C603.286 497.626 692.646 429.881 692.646 346.313C692.646 309.746 675.536 276.208 647.055 250.05Z" fill="white"/>
<path d="M647.055 250.05L666.671 228.691L636.485 200.968L620.386 238.659L647.055 250.05ZM549.3 201.091L574.375 215.661L594.292 181.383L555.592 172.782L549.3 201.091ZM436.809 201.091L430.518 172.782L391.818 181.383L411.735 215.661L436.809 201.091ZM339.055 250.05L365.724 238.659L349.625 200.968L319.439 228.691L339.055 250.05ZM620.386 238.659C616.431 247.917 607.268 254.315 596.678 254.315V312.315C631.311 312.315 660.97 291.3 673.724 261.442L620.386 238.659ZM596.678 254.315C582.453 254.315 570.922 242.784 570.922 228.56H512.922C512.922 274.817 550.421 312.315 596.678 312.315V254.315ZM570.922 228.56C570.922 223.803 572.185 219.429 574.375 215.661L524.226 186.522C517.033 198.902 512.922 213.295 512.922 228.56H570.922ZM493.055 224C510.484 224 527.25 225.898 543.009 229.401L555.592 172.782C535.672 168.355 514.687 166 493.055 166V224ZM443.101 229.401C458.86 225.898 475.625 224 493.055 224V166C471.423 166 450.437 168.355 430.518 172.782L443.101 229.401ZM473.187 228.56C473.187 213.295 469.077 198.902 461.884 186.522L411.735 215.661C413.924 219.429 415.187 223.803 415.187 228.56H473.187ZM389.432 312.315C435.689 312.315 473.187 274.817 473.187 228.56H415.187C415.187 242.784 403.656 254.315 389.432 254.315V312.315ZM312.386 261.442C325.14 291.3 354.799 312.315 389.432 312.315V254.315C378.841 254.315 369.679 247.917 365.724 238.659L312.386 261.442ZM322.463 346.313C322.463 319.325 335.002 293.147 358.671 271.409L319.439 228.691C286.144 259.269 264.463 300.166 264.463 346.313H322.463ZM493.055 468.626C443.681 468.626 400.073 453.419 369.442 430.197C338.83 406.99 322.463 377.056 322.463 346.313H264.463C264.463 399.137 292.776 444.859 334.403 476.417C376.01 507.96 432.198 526.626 493.055 526.626V468.626ZM663.646 346.313C663.646 377.056 647.279 406.99 616.668 430.197C586.037 453.419 542.429 468.626 493.055 468.626V526.626C553.912 526.626 610.1 507.96 651.707 476.417C693.333 444.859 721.646 399.137 721.646 346.313H663.646ZM627.438 271.409C651.107 293.147 663.646 319.325 663.646 346.313H721.646C721.646 300.166 699.965 259.269 666.671 228.691L627.438 271.409Z" fill="#9AB1E7" mask="url(#path-7-outside-1_336_4459)"/>
<path d="M721.393 492.327C721.393 512.081 715.275 539.537 703.288 570.226C691.395 600.673 674.131 633.263 652.809 663.111C609.49 723.749 552.573 768.943 493.055 768.943C433.536 768.943 376.619 723.749 333.301 663.111C311.979 633.263 294.714 600.673 282.822 570.226C270.835 539.537 264.717 512.081 264.717 492.327C264.717 454.296 287.811 417.916 329.165 390.314C370.408 362.785 428.305 345.239 493.055 345.239C557.805 345.239 615.702 362.785 656.945 390.314C698.298 417.916 721.393 454.296 721.393 492.327Z" fill="white" stroke="#9AB1E7" stroke-width="32"/>
</svg>
