<svg width="989" height="989" viewBox="0 0 989 989" fill="none" xmlns="http://www.w3.org/2000/svg">
<rect x="692.646" y="437.555" width="117.753" height="42.5816" rx="5" transform="rotate(-22.325 692.646 437.555)" fill="#9AB1E7"/>
<rect x="638.481" y="684.171" width="117.753" height="42.5816" rx="5" transform="rotate(41.9223 638.481 684.171)" fill="#9AB1E7"/>
<rect x="705.451" y="557.68" width="117.753" height="42.5816" rx="5" transform="rotate(17.5005 705.451 557.68)" fill="#9AB1E7"/>
<rect width="117.753" height="42.5816" rx="5" transform="matrix(-0.925044 -0.379861 -0.379861 0.925044 296.108 437.555)" fill="#9AB1E7"/>
<rect width="117.753" height="42.5816" rx="5" transform="matrix(-0.744052 0.668122 0.668122 0.744052 350.274 684.171)" fill="#9AB1E7"/>
<rect width="117.753" height="42.5816" rx="5" transform="matrix(-0.953714 0.300714 0.300714 0.953714 283.303 557.68)" fill="#9AB1E7"/>
<path fill-rule="evenodd" clip-rule="evenodd" d="M647.055 250.05C638.701 269.608 619.29 283.315 596.678 283.315C566.437 283.315 541.922 258.8 541.922 228.56C541.922 218.549 544.609 209.166 549.3 201.091C531.461 197.127 512.586 195 493.055 195C473.524 195 454.649 197.127 436.809 201.091C441.501 209.166 444.187 218.549 444.187 228.56C444.187 258.8 419.673 283.315 389.432 283.315C366.82 283.315 347.409 269.608 339.055 250.05C310.573 276.208 293.463 309.746 293.463 346.313C293.463 429.881 382.823 497.626 493.055 497.626C603.286 497.626 692.646 429.881 692.646 346.313C692.646 309.746 675.536 276.208 647.055 250.05Z" fill="#9AB1E7"/>
<path fill-rule="evenodd" clip-rule="evenodd" d="M647.055 250.05C638.701 269.608 619.29 283.315 596.678 283.315C566.437 283.315 541.922 258.8 541.922 228.56C541.922 218.549 544.609 209.166 549.3 201.091C531.461 197.127 512.586 195 493.055 195C473.524 195 454.649 197.127 436.809 201.091C441.501 209.166 444.187 218.549 444.187 228.56C444.187 258.8 419.673 283.315 389.432 283.315C366.82 283.315 347.409 269.608 339.055 250.05C310.573 276.208 293.463 309.746 293.463 346.313C293.463 429.881 382.823 497.626 493.055 497.626C603.286 497.626 692.646 429.881 692.646 346.313C692.646 309.746 675.536 276.208 647.055 250.05Z" fill="white" fill-opacity="0.2"/>
<path d="M721.393 492.327C721.393 512.081 715.275 539.537 703.288 570.226C691.395 600.673 674.131 633.263 652.809 663.111C609.49 723.749 552.573 768.943 493.055 768.943C433.536 768.943 376.619 723.749 333.301 663.111C311.979 633.263 294.714 600.673 282.822 570.226C270.835 539.537 264.717 512.081 264.717 492.327C264.717 454.296 287.811 417.916 329.165 390.314C370.408 362.785 428.305 345.239 493.055 345.239C557.805 345.239 615.702 362.785 656.945 390.314C698.298 417.916 721.393 454.296 721.393 492.327Z" fill="#9AB1E7" stroke="white" stroke-width="32"/>
</svg>
