<svg width="989" height="989" viewBox="0 0 989 989" fill="none" xmlns="http://www.w3.org/2000/svg">
<rect x="310" y="735" width="569" height="37" fill="#9AB1E7"/>
<rect x="310" y="805" width="330" height="37" fill="#9AB1E7"/>
<rect x="310" y="357" width="569" height="37" fill="#9AB1E7"/>
<rect x="310" y="427" width="330" height="37" fill="#9AB1E7"/>
<rect x="310" y="537" width="311" height="37" fill="#9AB1E7"/>
<rect x="310" y="607" width="470" height="37" fill="#9AB1E7"/>
<rect x="310" y="159" width="311" height="37" fill="#9AB1E7"/>
<rect x="310" y="229" width="470" height="37" fill="#9AB1E7"/>
<path fill-rule="evenodd" clip-rule="evenodd" d="M140.776 226.498C140.784 226.503 140.785 226.514 140.78 226.521C140.775 226.528 140.776 226.538 140.783 226.543L157.334 238.619C159.565 240.247 162.693 239.758 164.321 237.527L209.116 176.132C210.743 173.901 210.254 170.773 208.024 169.145L195.499 160.007C193.268 158.379 190.14 158.868 188.512 161.099L158.913 201.667C157.286 203.898 154.158 204.387 151.927 202.76L138.216 192.756C135.985 191.128 132.857 191.617 131.23 193.848L121.947 206.571C120.319 208.801 120.808 211.929 123.039 213.557L140.776 226.498Z" fill="#9AB1E7"/>
<path fill-rule="evenodd" clip-rule="evenodd" d="M141.645 425.122C141.652 425.127 141.654 425.138 141.649 425.145C141.643 425.152 141.645 425.162 141.652 425.167L157.349 436.62C159.579 438.247 162.707 437.758 164.335 435.528L209.13 374.132C210.757 371.901 210.269 368.774 208.038 367.146L196.367 358.631C194.137 357.003 191.009 357.492 189.381 359.723L157.803 403.004C156.175 405.235 153.047 405.724 150.817 404.096L136.251 393.469C134.02 391.841 130.892 392.33 129.265 394.561L121.961 404.571C120.334 406.802 120.823 409.93 123.053 411.557L141.645 425.122Z" fill="#9AB1E7"/>
<path fill-rule="evenodd" clip-rule="evenodd" d="M141.645 425.122C141.652 425.127 141.654 425.138 141.649 425.145C141.643 425.152 141.645 425.162 141.652 425.167L157.349 436.62C159.579 438.247 162.707 437.758 164.335 435.528L209.13 374.132C210.757 371.901 210.269 368.774 208.038 367.146L196.367 358.631C194.137 357.003 191.009 357.492 189.381 359.723L157.803 403.004C156.175 405.235 153.047 405.724 150.817 404.096L136.251 393.469C134.02 391.841 130.892 392.33 129.265 394.561L121.961 404.571C120.334 406.802 120.823 409.93 123.053 411.557L141.645 425.122Z" fill="#9AB1E7"/>
<path fill-rule="evenodd" clip-rule="evenodd" d="M141.645 811.452C141.652 811.458 141.654 811.468 141.649 811.475C141.643 811.482 141.645 811.492 141.652 811.497L157.349 822.95C159.579 824.577 162.707 824.088 164.335 821.858L209.13 760.462C210.757 758.231 210.269 755.104 208.038 753.476L196.367 744.961C194.137 743.334 191.009 743.823 189.381 746.053L157.803 789.334C156.175 791.565 153.047 792.054 150.817 790.426L136.251 779.799C134.02 778.171 130.892 778.66 129.265 780.891L121.961 790.901C120.334 793.132 120.823 796.26 123.053 797.887L141.645 811.452Z" fill="#9AB1E7"/>
<path fill-rule="evenodd" clip-rule="evenodd" d="M151.05 590.433C152.654 592.303 152.656 595.062 151.057 596.936L135.95 614.623C134.157 616.723 134.405 619.879 136.505 621.672L147.49 631.054C149.59 632.848 152.746 632.599 154.54 630.499L166.149 616.907C168.142 614.573 171.748 614.569 173.746 616.899L185.383 630.468C187.18 632.564 190.337 632.806 192.433 631.009L203.399 621.605C205.495 619.807 205.737 616.65 203.94 614.554L188.798 596.897C187.194 595.028 187.192 592.268 188.791 590.395L203.897 572.708C205.691 570.608 205.442 567.452 203.343 565.659L192.357 556.277C190.258 554.483 187.102 554.732 185.308 556.832L173.699 570.424C171.706 572.758 168.1 572.762 166.102 570.432L154.465 556.863C152.668 554.767 149.511 554.525 147.415 556.322L136.449 565.726C134.353 567.524 134.111 570.681 135.908 572.777L151.05 590.433Z" fill="#9AB1E7"/>
</svg>
