<svg width="10" height="9" viewBox="0 0 10 9" fill="none" xmlns="http://www.w3.org/2000/svg">
<path d="M9.35938 4.625C9.35938 7.0332 7.39062 8.98438 5 8.98438C2.5918 8.98438 0.640625 7.0332 0.640625 4.625C0.640625 2.23438 2.5918 0.265625 5 0.265625C7.39062 0.265625 9.35938 2.23438 9.35938 4.625ZM4.49023 6.94531L7.72461 3.71094C7.83008 3.60547 7.83008 3.41211 7.72461 3.30664L7.32031 2.91992C7.21484 2.79688 7.03906 2.79688 6.93359 2.91992L4.29688 5.55664L3.04883 4.32617C2.94336 4.20312 2.76758 4.20312 2.66211 4.32617L2.25781 4.71289C2.15234 4.81836 2.15234 5.01172 2.25781 5.11719L4.08594 6.94531C4.19141 7.05078 4.38477 7.05078 4.49023 6.94531Z" fill="white"/>
</svg>
