<svg width="31" height="35" viewBox="0 0 31 35" fill="none" xmlns="http://www.w3.org/2000/svg">
<path d="M27.2078 3.78967H4.38747C3.36756 3.78967 2.47514 4.68209 2.34766 5.702V28.6499C2.34766 29.6698 3.24007 30.5622 4.38747 30.5622H27.2078C28.2278 30.5622 29.1202 29.6698 29.2477 28.6499V5.702C29.2477 4.68209 28.3552 3.78967 27.2078 3.78967ZM10.3794 26.6101H6.42727V13.8612H10.3794V26.6101ZM8.3396 12.0764C7.06471 12.0764 6.04481 11.0565 6.04481 9.78162C6.04481 8.50673 7.06471 7.48683 8.3396 7.48683C9.61448 7.48683 10.6344 8.50673 10.6344 9.78162C10.6344 11.0565 9.61448 12.0764 8.3396 12.0764ZM25.2955 26.6101H21.3434V20.3631C21.3434 18.8333 21.3434 16.921 19.3036 16.921C17.2638 16.921 16.8813 18.5783 16.8813 20.2356V26.6101H12.9292V13.8612H16.7538V15.6461C17.5187 14.3712 18.9211 13.4788 20.451 13.6063C24.5306 13.6063 25.168 16.2835 25.168 19.7257L25.2955 26.6101Z" fill="white"/>
</svg>
