<svg width="31" height="35" viewBox="0 0 31 35" fill="none" xmlns="http://www.w3.org/2000/svg">
<path d="M8.03228 18C8.03228 16.7033 8.34825 15.5215 8.98018 14.4545C9.62033 13.3794 10.4739 12.5259 11.5408 11.8939C12.6159 11.2538 13.8018 10.9337 15.0985 10.9337C16.2393 10.9337 17.2897 11.1799 18.25 11.6723C19.2102 12.1648 20.0022 12.8378 20.6259 13.6913C21.2578 14.5448 21.6435 15.5092 21.7831 16.5843H18.3484C18.2089 15.8867 17.8314 15.3204 17.2159 14.8854C16.6004 14.4422 15.8946 14.2206 15.0985 14.2206C14.4091 14.2206 13.7772 14.393 13.2027 14.7377C12.6364 15.0742 12.1809 15.5297 11.8362 16.1042C11.4997 16.6705 11.3315 17.2983 11.3315 17.9877C11.3315 18.6853 11.4997 19.3213 11.8362 19.8958C12.1809 20.4621 12.6364 20.9176 13.2027 21.2623C13.7772 21.607 14.4091 21.7794 15.0985 21.7794C15.8946 21.7794 16.5757 21.5619 17.142 21.1269C17.7083 20.6837 18.0612 20.1133 18.2007 19.4157H21.6353C21.4958 20.4908 21.1224 21.4552 20.5151 22.3087C19.916 23.1622 19.1486 23.8352 18.213 24.3277C17.2774 24.8201 16.2393 25.0663 15.0985 25.0663C13.8018 25.0663 12.6159 24.7503 11.5408 24.1184C10.4739 23.4782 9.62033 22.6247 8.98018 21.5578C8.34825 20.4826 8.03228 19.2967 8.03228 18ZM15 31C13.2109 31 11.5284 30.6635 9.95271 29.9905C8.38518 29.3176 7.0023 28.386 5.80408 27.196C4.61407 25.9978 3.67847 24.6149 2.9973 23.0473C2.32432 21.4798 1.99194 19.7973 2.00015 18C2.00836 16.2027 2.34894 14.5202 3.02192 12.9527C3.7031 11.3851 4.63869 10.0063 5.8287 8.81629C7.01871 7.61805 8.39749 6.68245 9.96502 6.00947C11.5326 5.33649 13.2109 5 15 5C16.7973 5 18.4798 5.33649 20.0473 6.00947C21.623 6.68245 23.0018 7.61805 24.1836 8.81629C25.3736 10.0063 26.3051 11.3851 26.9781 12.9527C27.6511 14.5202 27.9916 16.2027 27.9998 18C28.0081 19.7973 27.6757 21.4798 27.0027 23.0473C26.3297 24.6149 25.3982 25.9978 24.2082 27.196C23.0182 28.386 21.6353 29.3176 20.0596 29.9905C18.4839 30.6635 16.7973 31 15 31ZM15 27.3191C16.2885 27.3191 17.499 27.077 18.6316 26.5928C19.7641 26.1086 20.7531 25.4438 21.5984 24.5985C22.4519 23.7449 23.1167 22.756 23.5927 21.6316C24.0769 20.4991 24.319 19.2926 24.319 18.0123C24.3108 16.7238 24.0646 15.5133 23.5804 14.3807C23.1044 13.2481 22.4396 12.2592 21.5861 11.4138C20.7326 10.5603 19.7436 9.89141 18.6193 9.4072C17.4949 8.92298 16.2885 8.68087 15 8.68087C13.7197 8.68087 12.5174 8.92298 11.393 9.4072C10.2687 9.89141 9.27974 10.5603 8.42621 11.4138C7.57269 12.2674 6.90382 13.2604 6.41961 14.393C5.93539 15.5174 5.68918 16.7238 5.68098 18.0123C5.68098 19.2844 5.91898 20.4867 6.39498 21.6193C6.8792 22.7437 7.54806 23.7326 8.40159 24.5862C9.25512 25.4397 10.2441 26.1086 11.3684 26.5928C12.501 27.077 13.7115 27.3191 15 27.3191Z" fill="white"/>
</svg>
