<svg width="12" height="12" viewBox="0 0 12 12" fill="none" xmlns="http://www.w3.org/2000/svg">
<path d="M11.1033 10.8146C11.0959 11.2018 10.7755 11.5222 10.3883 11.5296L6.42339 11.6052C6.03619 11.6126 5.72778 11.3042 5.73517 10.917C5.74256 10.5298 6.06296 10.2094 6.45017 10.202L8.72381 10.1586L5.52276 6.95757C5.25385 6.68866 5.2623 6.2457 5.54167 5.96633C5.82104 5.68696 6.264 5.67851 6.53291 5.94742L9.73397 9.14847L9.77736 6.87483C9.78474 6.48763 10.1052 6.16722 10.4924 6.15983C10.8796 6.15244 11.188 6.46085 11.1806 6.84805L11.1049 10.813L11.1033 10.8146ZM3.01629 8.49171C3.2852 8.76062 3.27674 9.20358 2.99737 9.48295C2.718 9.76232 2.27505 9.77077 2.00614 9.50187L1.03382 8.52955C0.228616 7.72434 0.254036 6.39237 1.09057 5.55584L5.13118 1.51523C5.96771 0.678697 7.29968 0.653278 8.10489 1.45848L9.0772 2.4308C9.34611 2.69971 9.33766 3.14266 9.05829 3.42204C8.77892 3.70141 8.33596 3.70986 8.06705 3.44095L7.09473 2.46863C6.82583 2.19972 6.38287 2.20818 6.1035 2.48755L2.06289 6.52816C1.78352 6.80753 1.77506 7.25049 2.04397 7.51939L3.01629 8.49171Z" fill="#202125"/>
</svg>
