<svg width="12" height="12" viewBox="0 0 12 12" fill="none" xmlns="http://www.w3.org/2000/svg">
<path d="M11.1034 10.8899C11.096 11.2772 10.7756 11.5976 10.3884 11.6049L6.42345 11.6806C6.03625 11.688 5.72784 11.3796 5.73523 10.9924C5.74262 10.6052 6.06303 10.2848 6.45023 10.2774L8.72387 10.234L5.52282 7.03295C5.25391 6.76404 5.26236 6.32108 5.54173 6.04171C5.8211 5.76234 6.26406 5.75389 6.53297 6.02279L9.73403 9.22385L9.77742 6.95021C9.78481 6.563 10.1052 6.2426 10.4924 6.23521C10.8796 6.22782 11.188 6.53622 11.1806 6.92343L11.105 10.8884L11.1034 10.8899ZM3.01635 8.56709C3.28526 8.836 3.27681 9.27896 2.99744 9.55833C2.71807 9.8377 2.27511 9.84615 2.0062 9.57724L1.03388 8.60492C0.228678 7.79972 0.254097 6.46775 1.09063 5.63122L5.13124 1.59061C5.96777 0.754075 7.29974 0.728656 8.10495 1.53386L9.07727 2.50618C9.34617 2.77508 9.33772 3.21804 9.05835 3.49741C8.77898 3.77678 8.33602 3.78524 8.06711 3.51633L7.09479 2.54401C6.82589 2.2751 6.38293 2.28356 6.10356 2.56293L2.06295 6.60354C1.78358 6.88291 1.77512 7.32586 2.04403 7.59477L3.01635 8.56709Z" fill="white"/>
</svg>
