<svg width="13" height="9" viewBox="0 0 13 9" fill="none" xmlns="http://www.w3.org/2000/svg">
<path d="M3.47953 1.28571H4.55V3.21429H2.26078L2.87828 1.68951C2.97578 1.44643 3.21344 1.28571 3.47953 1.28571ZM5.525 3.21429V1.28571H7.17437C7.37141 1.28571 7.55828 1.37411 7.68219 1.52679L9.04719 3.21429H5.525ZM10.7291 3.23437L8.69781 0.723214C8.32812 0.265179 7.7675 0 7.17437 0H3.47953C2.68125 0 1.96422 0.480134 1.66969 1.21138L0.824687 3.30268C0.34125 3.49152 0 3.95558 0 4.5V6.75C0 7.10558 0.290469 7.39286 0.65 7.39286H1.32641C1.48078 8.30491 2.28312 9 3.25 9C4.21687 9 5.01922 8.30491 5.17359 7.39286H7.82641C7.98078 8.30491 8.78312 9 9.75 9C10.7169 9 11.5192 8.30491 11.6736 7.39286H12.35C12.7095 7.39286 13 7.10558 13 6.75V5.78571C13 4.47589 12.0087 3.39509 10.7291 3.23437ZM8.82984 6.75C8.87122 6.62898 8.9365 6.5173 9.02189 6.42145C9.10728 6.32559 9.21108 6.24747 9.32725 6.19163C9.44342 6.13578 9.56966 6.10333 9.69863 6.09614C9.82759 6.08896 9.95671 6.10719 10.0785 6.14977C10.2003 6.19236 10.3123 6.25846 10.408 6.34422C10.5038 6.42998 10.5813 6.53371 10.6362 6.64936C10.691 6.76502 10.7221 6.8903 10.7276 7.01794C10.7331 7.14557 10.7129 7.27301 10.6681 7.39286C10.6267 7.51387 10.5615 7.62555 10.4761 7.72141C10.3907 7.81726 10.2869 7.89538 10.1707 7.95123C10.0545 8.00707 9.92831 8.03953 9.79934 8.04672C9.67038 8.0539 9.54125 8.03567 9.41947 7.99308C9.29769 7.9505 9.18568 7.8844 9.08995 7.79864C8.99421 7.71287 8.91667 7.60915 8.86181 7.49349C8.80695 7.37784 8.77587 7.25255 8.77039 7.12492C8.7649 6.99728 8.78511 6.86984 8.82984 6.75ZM3.25 6.10714C3.50859 6.10714 3.75658 6.20874 3.93943 6.38958C4.12228 6.57041 4.225 6.81568 4.225 7.07143C4.225 7.32717 4.12228 7.57244 3.93943 7.75328C3.75658 7.93412 3.50859 8.03571 3.25 8.03571C2.99141 8.03571 2.74342 7.93412 2.56057 7.75328C2.37772 7.57244 2.275 7.32717 2.275 7.07143C2.275 6.81568 2.37772 6.57041 2.56057 6.38958C2.74342 6.20874 2.99141 6.10714 3.25 6.10714Z" fill="white"/>
</svg>
