<svg width="10" height="11" viewBox="0 0 10 11" fill="none" xmlns="http://www.w3.org/2000/svg">
<path d="M5.50446 10.7986C5.22545 11.0671 4.77232 11.0671 4.4933 10.7986L1.63616 8.04844C1.35714 7.77987 1.35714 7.34372 1.63616 7.07515C1.91518 6.80658 2.3683 6.80658 2.64732 7.07515L4.28571 8.65218L4.28571 4.1252C4.28571 3.74491 4.60491 3.43767 5 3.43767C5.39509 3.43767 5.71429 3.74491 5.71429 4.1252L5.71429 8.65218L7.35268 7.07515C7.6317 6.80658 8.08482 6.80658 8.36384 7.07515C8.64286 7.34372 8.64286 7.77987 8.36384 8.04844L5.5067 10.7986L5.50446 10.7986ZM1.42857 3.43767C1.42857 3.81796 1.10938 4.1252 0.714287 4.1252C0.319198 4.1252 1.25575e-06 3.81796 1.32224e-06 3.43767L1.56266e-06 2.0626C1.76177e-06 0.923871 0.959823 -2.09716e-06 2.14286 -1.89031e-06L7.85714 -8.9119e-07C9.04018 -6.84342e-07 10 0.923873 10 2.0626L10 3.43767C10 3.81796 9.6808 4.1252 9.28571 4.1252C8.89063 4.1252 8.57143 3.81796 8.57143 3.43767L8.57143 2.0626C8.57143 1.68231 8.25223 1.37507 7.85714 1.37507L2.14286 1.37507C1.74777 1.37507 1.42857 1.68231 1.42857 2.0626L1.42857 3.43767Z" fill="#202125"/>
</svg>
